:SAMPLES-PER-SECOND 30
:FRAME-RANGE 1-668
:FULLY-SPECIFIED
:DEGREES
418
root  -30.7888 38.8022 22.6822 169.245 -73.2104 -167.095
RightUpLeg  -4.00144 4.25126 5.75684
RightLeg  20.7594 4.0888 1.42856
RightFoot  -16.628 -0.192694 -1.73834
RightToes  5.38607e-012 1.2921e-014 -6.02303e-014
Spine  -6.24628 -1.96776 3.55077
Spine1  8.02643 -2.38288 -0.131107
HEad  19.1479 -34.0896 -4.26593
LeftShoulder1  1.06101 -0.194004 -24.3512
LeftArm  -5.02294 13.0682 -44.4648
LeftForeArm  35.5895 -1.92933 -11.2498
LeftHand  -0.0444798 4.30391 2.49289
RightShoulder  1.5489 1.70496 24.8071
RightArm  -11.3952 18.1707 62.0516
RightForeArm  68.535 -5.37387 9.12831
RightHand  0.0635161 -5.90939 -17.2853
LeftUpLeg  -25.0378 -1.33048 13.2624
LeftLeg  9.45759 0.594468 2.92855
LeftFoot  -5.53947 0.466129 -8.53343
LeftToes  -6.11857e-011 5.00151e-011 -2.22593e-011
419
root  -31.7675 38.7305 22.6526 171.523 -71.5702 -169.056
RightUpLeg  -3.02751 6.274 5.23563
RightLeg  21.1336 3.71021 1.36574
RightFoot  -17.7203 -0.225603 -1.89814
RightToes  5.38607e-012 1.2921e-014 -6.02303e-014
Spine  -6.32361 -1.91881 2.6343
Spine1  8.07226 -2.19156 -0.550762
HEad  17.7567 -36.2112 -3.56351
LeftShoulder1  0.996787 0.0399303 -24.5651
LeftArm  -4.89794 15.2503 -43.7434
LeftForeArm  34.7301 -0.599473 -11.3688
LeftHand  -0.0425505 4.25827 2.19024
RightShoulder  1.57195 1.7827 24.7901
RightArm  -9.67899 18.7433 63.0678
RightForeArm  68.9639 -4.87279 9.95498
RightHand  0.0738064 -5.98709 -17.1038
LeftUpLeg  -24.6443 3.458 11.4306
LeftLeg  3.1919 -9.69338 4.17238
LeftFoot  -6.57405 0.36292 -7.76508
LeftToes  -6.11857e-011 5.00151e-011 -2.22593e-011
420
root  -32.7925 38.5844 22.6831 173.125 -69.7396 -170.291
RightUpLeg  -2.23732 8.00929 4.66055
RightLeg  21.8894 3.92272 1.51833
RightFoot  -19.1885 -0.250231 -1.75614
RightToes  5.38607e-012 1.2921e-014 -6.02303e-014
Spine  -6.17405 -1.90486 1.9718
Spine1  7.89322 -2.08582 -0.809377
HEad  16.1472 -37.6238 -2.51981
LeftShoulder1  0.898842 0.386786 -24.8479
LeftArm  -4.88049 17.4076 -43.22
LeftForeArm  34.1287 0.747732 -11.4496
LeftHand  -0.0374405 4.38757 1.75722
RightShoulder  1.58003 1.78474 24.9445
RightArm  -8.60586 19.0131 63.8162
RightForeArm  69.5208 -4.77375 10.4604
RightHand  0.0767163 -6.01982 -16.8231
LeftUpLeg  -25.0477 4.81243 11.8519
LeftLeg  0.974363 -15.2295 3.77744
LeftFoot  -8.14005 0.289925 -8.6209
LeftToes  -6.11857e-011 5.00151e-011 -2.22593e-011
421
root  -33.8717 38.36 22.8062 174.106 -67.982 -170.786
RightUpLeg  -1.77143 9.66533 4.01995
RightLeg  23.178 4.25198 1.77704
RightFoot  -20.9932 -0.261976 -1.42053
RightToes  5.38607e-012 1.2921e-014 -6.02303e-014
Spine  -5.87345 -1.90485 1.73234
Spine1  7.52636 -2.10329 -0.801834
HEad  14.2602 -38.7694 -1.1222
LeftShoulder1  0.843629 0.597661 -25.2226
LeftArm  -4.9408 19.2039 -42.9776
LeftForeArm  33.5103 2.24509 -11.5153
LeftHand  -0.0350589 4.60957 1.72604
RightShoulder  1.57341 1.7203 25.2222
RightArm  -8.25655 19.0037 64.143
RightForeArm  69.8019 -5.03982 10.6099
RightHand  0.0790097 -6.0325 -16.8943
LeftUpLeg  -26.1091 4.92701 12.269
LeftLeg  2.86602 -17.5214 3.20791
LeftFoot  -9.0451 0.267482 -10.6258
LeftToes  -6.11857e-011 5.00151e-011 -2.22593e-011
422
root  -35.0347 38.1331 23.0183 174.92 -66.0237 -171.21
RightUpLeg  -1.16118 11.1276 3.09252
RightLeg  24.425 4.97504 2.24625
RightFoot  -22.5624 -0.233031 -0.817367
RightToes  5.38607e-012 1.2921e-014 -6.02303e-014
Spine  -5.80873 -1.78664 1.99425
Spine1  7.66112 -1.98153 -0.963085
HEad  12.178 -39.8667 0.466683
LeftShoulder1  0.801987 0.771075 -25.7318
LeftArm  -5.03726 20.1942 -43.1415
LeftForeArm  33.2698 4.11746 -11.589
LeftHand  -0.030792 4.67718 1.02731
RightShoulder  1.5858 1.72875 25.4261
RightArm  -8.76743 18.6252 64.0214
RightForeArm  69.8174 -5.51518 10.3773
RightHand  0.0891722 -6.09237 -17.1089
LeftUpLeg  -26.7051 2.16502 13.3484
LeftLeg  6.79072 -16.6128 2.34973
LeftFoot  -9.42743 0.198007 -8.46671
LeftToes  -6.11857e-011 5.00151e-011 -2.22593e-011
423
root  -36.2836 38.021 23.2673 175.919 -63.536 -171.87
RightUpLeg  -0.203395 12.375 1.69351
RightLeg  24.7653 6.55109 3.07267
RightFoot  -23.1823 -0.181344 -0.23494
RightToes  5.38607e-012 1.2921e-014 -6.02303e-014
Spine  -6.29633 -1.54716 2.41167
Spine1  8.38649 -1.63966 -1.4445
HEad  10.5564 -40.7945 1.58503
LeftShoulder1  0.751956 0.952493 -26.0576
LeftArm  -5.44181 21.309 -43.9738
LeftForeArm  33.5446 5.49671 -11.5867
LeftHand  -0.0290485 4.85586 0.718936
RightShoulder  1.61427 1.80667 25.51
RightArm  -9.88665 18.1595 63.5423
RightForeArm  70.3735 -6.31978 9.87086
RightHand  0.0875275 -6.08188 -17.0927
LeftUpLeg  -26.2093 -3.28812 15.137
LeftLeg  9.79867 -13.2554 2.10994
LeftFoot  -10.4297 0.159423 -12.1727
LeftToes  -6.11857e-011 5.00151e-011 -2.22593e-011
424
root  -37.5693 37.9467 23.5221 177.199 -60.7842 -172.883
RightUpLeg  0.786067 13.5143 -0.193928
RightLeg  24.7716 8.5967 4.09467
RightFoot  -23.3582 -0.0890494 0.657151
RightToes  5.38607e-012 1.2921e-014 -6.02303e-014
Spine  -6.48306 -1.49323 1.85301
Spine1  8.5702 -1.67167 -1.07839
HEad  9.76132 -41.158 1.92725
LeftShoulder1  0.579758 1.53115 -26.8024
LeftArm  -5.18879 22.6405 -44.5777
LeftForeArm  34.0395 5.85905 -11.8181
LeftHand  -0.0290616 4.93332 0.348371
RightShoulder  1.67473 1.94751 25.835
RightArm  -11.5788 17.7684 62.6362
RightForeArm  71.9318 -6.16391 9.27303
RightHand  0.186004 -6.68794 -17.9047
LeftUpLeg  -25.8117 -6.07373 15.7534
LeftLeg  11.7726 -13.4142 0.862306
LeftFoot  -6.36062 0.787664 -17.129
LeftToes  -6.11857e-011 5.00151e-011 -2.22593e-011
425
root  -38.82 37.8644 23.771 179.332 -58.6058 -174.473
RightUpLeg  0.784531 14.6555 -2.60365
RightLeg  25.6608 10.0658 5.01592
RightFoot  -23.4352 0.00173638 1.51525
RightToes  5.38607e-012 1.2921e-014 -6.02303e-014
Spine  -6.81723 -1.6965 0.505902
Spine1  8.60698 -2.01081 -0.254784
HEad  8.94675 -42.3604 3.0379
LeftShoulder1  0.511572 1.73695 -26.742
LeftArm  -5.32288 23.733 -45.9012
LeftForeArm  34.9116 5.6897 -11.9346
LeftHand  -0.0293143 5.08794 0.438445
RightShoulder  1.66667 1.75163 26.9521
RightArm  -13.8605 17.5826 61.2277
RightForeArm  74.2068 -5.90873 8.24494
RightHand  0.234461 -7.0063 -17.8884
LeftUpLeg  -26.785 -9.42395 16.4903
LeftLeg  14.9313 -9.52741 -1.23614
LeftFoot  -3.02031 1.43515 -19.3219
LeftToes  -6.11857e-011 5.00151e-011 -2.22593e-011
426
root  -39.9139 37.873 23.9913 -178.622 -56.4872 -176.078
RightUpLeg  0.0666866 15.8488 -5.02799
RightLeg  27.2613 11.3521 6.07443
RightFoot  -22.6388 0.138072 2.94669
RightToes  5.38607e-012 1.2921e-014 -6.02303e-014
Spine  -6.7589 -1.85484 -0.753835
Spine1  8.80084 -2.07566 -0.427422
HEad  7.57853 -44.9648 5.2033
LeftShoulder1  0.641312 1.28973 -25.9091
LeftArm  -5.86646 24.26 -47.6705
LeftForeArm  35.8145 5.1553 -11.8724
LeftHand  -0.0273131 4.95742 0.321475
RightShoulder  1.64678 1.56645 27.8229
RightArm  -17.4744 16.9126 60.1909
RightForeArm  75.9091 -5.52422 6.29288
RightHand  0.259235 -7.17999 -17.7834
LeftUpLeg  -27.2468 -7.31202 14.9306
LeftLeg  18.1556 -8.30231 -2.67083
LeftFoot  -3.92375 1.28152 -19.2511
LeftToes  -6.11857e-011 5.00151e-011 -2.22593e-011
427
root  -40.8862 37.9928 24.181 -176.866 -53.709 -177.365
RightUpLeg  -1.44262 16.9672 -7.29898
RightLeg  29.4289 11.8839 6.95087
RightFoot  -20.7152 0.247704 4.73223
RightToes  5.38607e-012 1.2921e-014 -6.02303e-014
Spine  -6.82382 -1.88827 -1.83523
Spine1  9.377 -1.92054 -1.10067
HEad  5.87506 -48.048 7.41189
LeftShoulder1  0.748471 0.922947 -25.4926
LeftArm  -5.81404 23.8977 -48.5034
LeftForeArm  36.6445 4.10072 -11.8979
LeftHand  -0.0241733 4.60391 -0.0161544
RightShoulder  1.72833 1.83942 27.6173
RightArm  -21.6381 15.9892 60.0745
RightForeArm  76.6408 -5.08515 3.80583
RightHand  0.304547 -7.40349 -18.3776
LeftUpLeg  -26.8136 -4.33932 12.6088
LeftLeg  19.8445 -8.49711 -3.05933
LeftFoot  -3.98206 1.08209 -16.3627
LeftToes  -6.11857e-011 5.00151e-011 -2.22593e-011
428
root  -41.8154 38.1436 24.3689 -175.994 -50.8582 -177.869
RightUpLeg  -3.32591 16.6105 -8.9769
RightLeg  32.3232 11.4449 7.4855
RightFoot  -18.0696 0.28441 6.91725
RightToes  5.38607e-012 1.2921e-014 -6.02303e-014
Spine  -6.48886 -2.0212 -2.42272
Spine1  9.39314 -1.97937 -1.4552
HEad  4.76394 -50.9832 8.76074
LeftShoulder1  0.818976 0.700805 -25.522
LeftArm  -4.89226 23.1583 -48.1268
LeftForeArm  36.5581 2.52714 -12.122
LeftHand  -0.0261165 4.60449 0.178278
RightShoulder  1.72967 1.91914 27.1137
RightArm  -24.8128 15.1786 60.2975
RightForeArm  77.5189 -4.71094 1.78982
RightHand  0.355262 -7.73537 -18.3075
LeftUpLeg  -26.1969 -4.00817 11.1586
LeftLeg  21.0441 -6.25059 -2.31595
LeftFoot  -3.55059 0.837045 -11.9477
LeftToes  -6.11857e-011 5.00151e-011 -2.22593e-011
429
root  -42.6795 38.3395 24.5167 -175.732 -47.9566 -177.62
RightUpLeg  -5.54499 15.1605 -9.65421
RightLeg  35.5469 9.3886 6.9018
RightFoot  -15.021 0.141392 7.56783
RightToes  5.38607e-012 1.2921e-014 -6.02303e-014
Spine  -6.16673 -2.19184 -2.75465
Spine1  9.13575 -2.23069 -1.13158
HEad  4.18891 -53.4032 9.35462
LeftShoulder1  0.86303 0.565395 -25.5788
LeftArm  -4.36839 22.0452 -47.1721
LeftForeArm  36.4366 1.18485 -12.1129
LeftHand  -0.0290912 4.442 0.677354
RightShoulder  1.6872 1.79477 27.0827
RightArm  -26.3132 14.8891 59.9092
RightForeArm  79.3824 -4.45716 0.75747
RightHand  0.376725 -8.05443 -17.1591
LeftUpLeg  -25.2917 -3.71667 10.3849
LeftLeg  21.5566 -3.78558 -1.3105
LeftFoot  -3.78235 0.679571 -9.92669
LeftToes  -6.11857e-011 5.00151e-011 -2.22593e-011
430
root  -43.4508 38.5706 24.6024 -175.595 -44.6183 -177.09
RightUpLeg  -7.99637 13.2529 -9.38556
RightLeg  38.4423 4.954 3.94442
RightFoot  -12.0188 -0.0406564 6.93026
RightToes  5.38607e-012 1.2921e-014 -6.02303e-014
Spine  -6.15594 -2.29364 -3.04534
Spine1  9.03514 -2.41457 -0.645947
HEad  3.6843 -54.4848 9.97485
LeftShoulder1  0.884657 0.446405 -25.0004
LeftArm  -4.34178 21.1172 -46.308
LeftForeArm  36.0473 -0.267909 -11.9345
LeftHand  -0.0349061 4.61065 1.70133
RightShoulder  1.64759 1.63313 27.3686
RightArm  -26.9558 14.3069 59.372
RightForeArm  81.8578 -4.28512 0.374182
RightHand  0.340838 -8.14323 -15.2495
LeftUpLeg  -24.0065 -2.76204 9.95625
LeftLeg  21.291 -1.51773 -0.31476
LeftFoot  -4.16667 0.586326 -8.94208
LeftToes  -6.11857e-011 5.00151e-011 -2.22593e-011
